<?xml version="1.0" standalone="no"?>
<!DOCTYPE svg PUBLIC "-//W3C//DTD SVG 20010904//EN"
 "http://www.w3.org/TR/2001/REC-SVG-20010904/DTD/svg10.dtd">
<svg version="1.0" xmlns="http://www.w3.org/2000/svg"
 width="512.000000pt" height="512.000000pt" viewBox="0 0 512.000000 512.000000"
 preserveAspectRatio="xMidYMid meet">

<g transform="translate(0.000000,512.000000) scale(0.100000,-0.100000)"
fill="#000000" stroke="none">
<path d="M665 5114 c-312 -50 -558 -270 -641 -575 -27 -99 -25 -291 4 -392 26
-89 70 -182 118 -247 18 -25 323 -335 678 -690 l646 -645 -643 -645 c-354
-355 -660 -668 -680 -696 -47 -66 -102 -182 -124 -264 -24 -89 -24 -290 1
-379 75 -275 282 -482 557 -557 97 -27 290 -25 392 4 95 27 196 77 262 129 28
22 337 327 688 678 l637 638 638 -638 c350 -351 659 -656 687 -678 66 -52 167
-102 262 -129 102 -29 295 -31 392 -4 275 75 482 282 557 557 27 97 25 290 -4
392 -25 89 -69 180 -120 252 -20 28 -325 340 -679 695 l-643 645 646 645 c355
355 660 665 678 690 49 65 93 158 118 247 29 102 31 295 4 392 -75 275 -282
482 -557 557 -89 25 -290 25 -379 1 -82 -22 -198 -77 -264 -124 -28 -20 -340
-325 -693 -677 l-643 -640 -642 640 c-354 352 -665 656 -693 676 -128 91 -266
138 -425 143 -58 2 -118 1 -135 -1z"/>
</g>
</svg>
